<?xml version="1.0" encoding="utf-8"?>
<!-- Generator: Adobe Illustrator 17.0.0, SVG Export Plug-In . SVG Version: 6.00 Build 0)  -->
<!DOCTYPE svg PUBLIC "-//W3C//DTD SVG 1.1//EN" "http://www.w3.org/Graphics/SVG/1.1/DTD/svg11.dtd">
<svg version="1.1" id="Calque_1" xmlns="http://www.w3.org/2000/svg" xmlns:xlink="http://www.w3.org/1999/xlink" x="0px" y="0px"
	 width="48px" height="48px" viewBox="0 0 48 48" enable-background="new 0 0 48 48" xml:space="preserve">
<title>Add to project button</title>
<path d="M2.583,42.048V5.938h13.079l8.014,11.519c0.152,0.205,0.393,0.325,0.648,0.324l0,0H45.37v24.268L2.583,42.048L2.583,42.048z
	 M45.418,11.366v3.825H25.227l-2.869-3.887h23.06V11.366z M21.216,8.824l-3.763-5.136l0,0l-0.247-0.293H-0.021v41.211h48.043V8.809
	H20.216L21.216,8.824z M22.481,28.632v-5.984h2.961v5.953h6.077v2.807h-6.077v6.169h-2.961v-6.169h-6v-2.807h6V28.632z"/>
</svg>
