<?xml version="1.0" encoding="utf-8"?>
<!-- Generator: Adobe Illustrator 17.0.0, SVG Export Plug-In . SVG Version: 6.00 Build 0)  -->
<!DOCTYPE svg PUBLIC "-//W3C//DTD SVG 1.1//EN" "http://www.w3.org/Graphics/SVG/1.1/DTD/svg11.dtd">
<svg version="1.1" id="Layer_1" xmlns="http://www.w3.org/2000/svg" xmlns:xlink="http://www.w3.org/1999/xlink" x="0px" y="0px"
	 width="48px" height="48px" viewBox="0 0 48 48" enable-background="new 0 0 48 48" xml:space="preserve">
<path fill="none" d="M0,0h48v48H0V0z"/>
<path fill="#FFFFFF" d="M34.42,18L25.66,4.88C25.28,4.32,24.64,4.04,24,4.04s-1.28,0.28-1.66,0.86L13.58,18H4c-1.1,0-2,0.9-2,2
	c0,0.18,0.02,0.36,0.08,0.54l5.08,18.54C7.62,40.76,9.16,42,11,42h26c1.84,0,3.38-1.24,3.86-2.92l5.08-18.54L46,20c0-1.1-0.9-2-2-2
	H34.42z M18,18l6-8.8l6,8.8H18z M16.414,28.893h6.611v-6.644h1.947v6.644h6.642v1.94l-6.642-0.03v6.644h-1.947v-6.614h-6.64
	L16.414,28.893z"/>
</svg>
