<?xml version="1.0" encoding="utf-8"?>
<!-- Generator: Adobe Illustrator 17.0.0, SVG Export Plug-In . SVG Version: 6.00 Build 0)  -->
<!DOCTYPE svg PUBLIC "-//W3C//DTD SVG 1.1//EN" "http://www.w3.org/Graphics/SVG/1.1/DTD/svg11.dtd">
<svg version="1.1" id="Layer_1" xmlns="http://www.w3.org/2000/svg" xmlns:xlink="http://www.w3.org/1999/xlink" x="0px" y="0px"
	 width="48px" height="48px" viewBox="0 0 48 48" enable-background="new 0 0 48 48" xml:space="preserve">
<path fill="none" d="M0,0h48v48H0V0z"/>
<path fill="#FFFFFF" d="M40.584,4.919h-9.996c-1.004-2.774-3.635-4.783-6.744-4.783s-5.739,2.009-6.744,4.783H7.105
	c-2.631,0-4.783,2.152-4.783,4.783v33.479c0,2.631,2.152,4.783,4.783,4.783h33.479c2.631,0,4.783-2.152,4.783-4.783V9.702
	C45.367,7.071,43.215,4.919,40.584,4.919z M23.845,4.919c1.315,0,2.391,1.076,2.391,2.391s-1.076,2.391-2.391,2.391
	c-1.315,0-2.391-1.076-2.391-2.391S22.53,4.919,23.845,4.919z M28.628,38.398h-16.74v-4.783h16.74V38.398z M35.802,28.833H11.888
	V24.05h23.914V28.833z M35.802,19.267H11.888v-4.783h23.914V19.267z"/>
</svg>
