<?xml version="1.0" encoding="utf-8"?>
<!-- Generator: Adobe Illustrator 17.0.0, SVG Export Plug-In . SVG Version: 6.00 Build 0)  -->
<!DOCTYPE svg PUBLIC "-//W3C//DTD SVG 1.1//EN" "http://www.w3.org/Graphics/SVG/1.1/DTD/svg11.dtd">
<svg version="1.1" id="Layer_1" xmlns="http://www.w3.org/2000/svg" xmlns:xlink="http://www.w3.org/1999/xlink" x="0px" y="0px"
	 width="48px" height="54px" viewBox="0 0 48 54" enable-background="new 0 0 48 54" xml:space="preserve">
<path fill="none" d="M0,0h48v48H0V0z"/>
<path fill="#FFFFFF" d="M31.277,6.037c-1.068-3.323-3.867-5.729-7.175-5.729s-6.105,2.406-7.175,5.729H1.205V54H47V6.037H31.277z
	 M24.102,5.396c1.399,0,2.544,1.145,2.544,2.544s-1.145,2.543-2.544,2.543s-2.544-1.145-2.544-2.544S22.704,5.396,24.102,5.396z
	 M29.192,44.015h-17.81v-5.088h17.809v5.088H29.192z M36.824,33.838H11.381V28.75h25.442v5.088H36.824z M36.824,23.662H11.381
	v-5.088h25.442v5.088H36.824z"/>
</svg>
