<?xml version="1.0" encoding="utf-8"?>
<!-- Generator: Adobe Illustrator 17.0.0, SVG Export Plug-In . SVG Version: 6.00 Build 0)  -->
<!DOCTYPE svg PUBLIC "-//W3C//DTD SVG 1.1//EN" "http://www.w3.org/Graphics/SVG/1.1/DTD/svg11.dtd">
<svg version="1.1" id="Layer_1" xmlns="http://www.w3.org/2000/svg" xmlns:xlink="http://www.w3.org/1999/xlink" x="0px" y="0px"
	 width="48px" height="48px" viewBox="0 0 48 48" enable-background="new 0 0 48 48" xml:space="preserve">
<path fill="none" d="M0,0h48v48H0V0z"/>
<g>
	<linearGradient id="SVGID_1_" gradientUnits="userSpaceOnUse" x1="32.297" y1="21.6762" x2="32.297" y2="14.5084">
		<stop  offset="0" style="stop-color:#EC008B"/>
		<stop  offset="0.13" style="stop-color:#ED0284"/>
		<stop  offset="0.33" style="stop-color:#F00770"/>
		<stop  offset="0.56" style="stop-color:#F4104F"/>
		<stop  offset="0.82" style="stop-color:#FA1D22"/>
		<stop  offset="1" style="stop-color:#FF2600"/>
	</linearGradient>
	<circle fill="url(#SVGID_1_)" cx="32.297" cy="18.092" r="3.584"/>
	<linearGradient id="SVGID_2_" gradientUnits="userSpaceOnUse" x1="15.5721" y1="21.6762" x2="15.5721" y2="14.5084">
		<stop  offset="0" style="stop-color:#EC008B"/>
		<stop  offset="0.13" style="stop-color:#ED0284"/>
		<stop  offset="0.33" style="stop-color:#F00770"/>
		<stop  offset="0.56" style="stop-color:#F4104F"/>
		<stop  offset="0.82" style="stop-color:#FA1D22"/>
		<stop  offset="1" style="stop-color:#FF2600"/>
	</linearGradient>
	<circle fill="url(#SVGID_2_)" cx="15.572" cy="18.092" r="3.584"/>
	<linearGradient id="SVGID_3_" gradientUnits="userSpaceOnUse" x1="23.9345" y1="47.9582" x2="23.9345" y2="0.1728">
		<stop  offset="0" style="stop-color:#EC008B"/>
		<stop  offset="0.13" style="stop-color:#ED0284"/>
		<stop  offset="0.33" style="stop-color:#F00770"/>
		<stop  offset="0.56" style="stop-color:#F4104F"/>
		<stop  offset="0.82" style="stop-color:#FA1D22"/>
		<stop  offset="1" style="stop-color:#FF2600"/>
	</linearGradient>
	<path fill="url(#SVGID_3_)" d="M23.911,0.173c-13.189,0-23.869,10.704-23.869,23.893s10.68,23.893,23.869,23.893
		c13.213,0,23.917-10.704,23.917-23.893S37.123,0.173,23.911,0.173z M23.935,43.18c-10.561,0-19.114-8.554-19.114-19.114
		S13.374,4.951,23.935,4.951s19.114,8.554,19.114,19.114S34.495,43.18,23.935,43.18z M23.935,28.844
		c-5.567,0-10.322,3.464-12.233,8.362h3.99c1.649-2.843,4.707-4.779,8.243-4.779s6.57,1.935,8.243,4.779h3.99
		C34.256,32.308,29.502,28.844,23.935,28.844z"/>
</g>
</svg>
