<?xml version="1.0" encoding="utf-8"?>
<!-- Generator: Adobe Illustrator 17.0.0, SVG Export Plug-In . SVG Version: 6.00 Build 0)  -->
<!DOCTYPE svg PUBLIC "-//W3C//DTD SVG 1.1//EN" "http://www.w3.org/Graphics/SVG/1.1/DTD/svg11.dtd">
<svg version="1.1" id="Layer_1" xmlns="http://www.w3.org/2000/svg" xmlns:xlink="http://www.w3.org/1999/xlink" x="0px" y="0px"
	 width="48px" height="48px" viewBox="0 0 48 48" enable-background="new 0 0 48 48" xml:space="preserve">
<linearGradient id="SVGID_1_" gradientUnits="userSpaceOnUse" x1="24.0948" y1="48.0119" x2="24.0948" y2="2.482921e-10">
	<stop  offset="0" style="stop-color:#EC008B"/>
	<stop  offset="0.13" style="stop-color:#ED0284"/>
	<stop  offset="0.33" style="stop-color:#F00770"/>
	<stop  offset="0.56" style="stop-color:#F4104F"/>
	<stop  offset="0.82" style="stop-color:#FA1D22"/>
	<stop  offset="1" style="stop-color:#FF2600"/>
</linearGradient>
<path fill="url(#SVGID_1_)" d="M48.076,43.785l-14.593-14.56c2.197-3.035,3.507-6.754,3.507-10.787C36.991,8.255,28.736,0,18.552,0
	C8.369,0,0.114,8.255,0.114,18.438s8.255,18.438,18.438,18.438c3.993,0,7.679-1.283,10.698-3.44l14.609,14.576L48.076,43.785z
	 M5.729,18.438c0-7.082,5.741-12.823,12.823-12.823c7.082,0,12.823,5.741,12.823,12.823c0,7.082-5.741,12.823-12.823,12.823
	C11.47,31.261,5.729,25.52,5.729,18.438z"/>
</svg>
