<?xml version="1.0" encoding="utf-8"?>
<!-- Generator: Adobe Illustrator 17.0.0, SVG Export Plug-In . SVG Version: 6.00 Build 0)  -->
<!DOCTYPE svg PUBLIC "-//W3C//DTD SVG 1.1//EN" "http://www.w3.org/Graphics/SVG/1.1/DTD/svg11.dtd">
<svg version="1.1" id="Layer_1" xmlns="http://www.w3.org/2000/svg" xmlns:xlink="http://www.w3.org/1999/xlink" x="0px" y="0px"
	 width="48px" height="48px" viewBox="0 0 48 48" enable-background="new 0 0 48 48" xml:space="preserve">
<g>
	<g>
		<g>
			<path fill="#FFFFFF" d="M18.552,0C8.369,0,0.114,8.255,0.114,18.438c0,10.183,8.255,18.438,18.438,18.438
				s18.438-8.255,18.438-18.438C36.991,8.255,28.736,0,18.552,0z M18.552,31.261c-7.082,0-12.823-5.741-12.823-12.823
				c0-7.082,5.741-12.823,12.823-12.823s12.823,5.741,12.823,12.823C31.375,25.52,25.634,31.261,18.552,31.261z"/>
		</g>
	</g>
	
		<rect x="33.816" y="23.805" transform="matrix(0.7063 -0.7079 0.7079 0.7063 -15.2092 36.8464)" fill="#FFFFFF" width="5.971" height="25.896"/>
</g>
</svg>
